<svg xmlns="http://www.w3.org/2000/svg" viewBox="0 0 180 180" width="180" height="180">
  <defs>
    <linearGradient id="fv-navy" x1="0" y1="0" x2="0" y2="1">
      <stop offset="0" stop-color="#264E7A"/>
      <stop offset="1" stop-color="#142849"/>
    </linearGradient>
    <linearGradient id="fv-teal" x1="0" y1="0" x2="0" y2="1">
      <stop offset="0" stop-color="#2EBED5"/>
      <stop offset="1" stop-color="#1A8AAB"/>
    </linearGradient>
    <linearGradient id="fv-mint" x1="0" y1="0" x2="0" y2="1">
      <stop offset="0" stop-color="#7FE8C8"/>
      <stop offset="1" stop-color="#4ECFAA"/>
    </linearGradient>
  </defs>
  <rect width="180" height="180" rx="36" fill="#FFFFFF"/>
  <path d="M 34 42 L 54 42 L 90 132 L 70 132 Z" fill="url(#fv-navy)"/>
  <path d="M 146 42 L 126 42 L 90 132 L 110 132 Z" fill="url(#fv-navy)"/>
  <path d="M 61 59 Q 90 64 119 55 Q 113 95 90 122 Q 70 95 61 59 Z" fill="url(#fv-mint)" opacity="0.92"/>
  <rect x="94" y="52" width="13" height="89" rx="3" fill="url(#fv-teal)"/>
  <rect x="94" y="52" width="56" height="13" rx="3" fill="url(#fv-teal)"/>
  <rect x="94" y="89" width="41" height="11" rx="3" fill="url(#fv-teal)"/>
</svg>
